<svg width="27" height="24" viewBox="0 0 27 24" fill="none" xmlns="http://www.w3.org/2000/svg">
<g clip-path="url(#clip0_0_431)">
<path fill-rule="evenodd" clip-rule="evenodd" d="M0 2C0 1.46957 0.203188 0.96086 0.564865 0.585787C0.926543 0.210714 1.41708 0 1.92857 0H25.0714C25.5829 0 26.0735 0.210714 26.4351 0.585787C26.7968 0.96086 27 1.46957 27 2C27 2.53043 26.7968 3.03914 26.4351 3.41421C26.0735 3.78929 25.5829 4 25.0714 4H1.92857C1.41708 4 0.926543 3.78929 0.564865 3.41421C0.203188 3.03914 0 2.53043 0 2ZM0 12C0 11.4696 0.203188 10.9609 0.564865 10.5858C0.926543 10.2107 1.41708 10 1.92857 10H25.0714C25.5829 10 26.0735 10.2107 26.4351 10.5858C26.7968 10.9609 27 11.4696 27 12C27 12.5304 26.7968 13.0391 26.4351 13.4142C26.0735 13.7893 25.5829 14 25.0714 14H1.92857C1.41708 14 0.926543 13.7893 0.564865 13.4142C0.203188 13.0391 0 12.5304 0 12ZM0 22C0 21.4696 0.203188 20.9609 0.564865 20.5858C0.926543 20.2107 1.41708 20 1.92857 20H25.0714C25.5829 20 26.0735 20.2107 26.4351 20.5858C26.7968 20.9609 27 21.4696 27 22C27 22.5304 26.7968 23.0391 26.4351 23.4142C26.0735 23.7893 25.5829 24 25.0714 24H1.92857C1.41708 24 0.926543 23.7893 0.564865 23.4142C0.203188 23.0391 0 22.5304 0 22Z" fill="black"/>
</g>
<defs>
<clipPath id="clip0_0_431">
<rect width="27" height="24" fill="white"/>
</clipPath>
</defs>
</svg>
